<svg width="55" height="56" viewBox="0 0 55 56" fill="none" xmlns="http://www.w3.org/2000/svg">
<path d="M32.877 22.6792C28.9502 24.7824 21.0775 29.0078 21.0012 29.084L25.9383 33.3158L32.877 22.6792Z" fill="#00354B" stroke="#00354B"/>
<path d="M20.625 29.4156L25.7812 34.5718L34.375 22.5406M48.125 27.6968C48.125 30.6026 46.6813 33.1739 44.4744 34.7276C44.7121 36.0861 44.6191 37.4818 44.203 38.7966C43.7869 40.1114 43.0601 41.3066 42.0842 42.281C41.1098 43.2569 39.9146 43.9837 38.5998 44.3998C37.285 44.8159 35.8893 44.909 34.5308 44.6712C33.7384 45.7998 32.6857 46.7208 31.4618 47.3563C30.238 47.9917 28.879 48.3229 27.5 48.3218C24.5942 48.3218 22.0229 46.8781 20.4692 44.6712C19.1107 44.9088 17.7151 44.8156 16.4003 44.3995C15.0855 43.9835 13.8903 43.2568 12.9158 42.281C11.9399 41.3066 11.2131 40.1114 10.797 38.7966C10.3809 37.4818 10.2879 36.0861 10.5256 34.7276C9.39703 33.9352 8.47601 32.8825 7.84054 31.6586C7.20507 30.4348 6.87388 29.0758 6.875 27.6968C6.875 24.791 8.31875 22.2197 10.5256 20.666C10.2879 19.3075 10.3809 17.9118 10.797 16.597C11.2131 15.2822 11.9399 14.087 12.9158 13.1126C13.8903 12.1368 15.0855 11.4102 16.4003 10.9941C17.7151 10.578 19.1107 10.4849 20.4692 10.7224C21.2617 9.59398 22.3145 8.67306 23.5383 8.03761C24.7621 7.40216 26.121 7.07088 27.5 7.07181C30.4058 7.07181 32.9771 8.51556 34.5308 10.7224C35.8893 10.4849 37.2849 10.578 38.5997 10.9941C39.9145 11.4102 41.1097 12.1368 42.0842 13.1126C43.06 14.0871 43.7867 15.2823 44.2027 16.5971C44.6188 17.9119 44.712 19.3076 44.4744 20.666C45.603 21.4584 46.524 22.5111 47.1595 23.735C47.7949 24.9588 48.1261 26.3178 48.125 27.6968Z" fill="#00354B"/>
<path d="M20.625 29.4156L25.7812 34.5718L34.375 22.5406M48.125 27.6968C48.125 30.6026 46.6813 33.1739 44.4744 34.7276C44.7121 36.0861 44.6191 37.4818 44.203 38.7966C43.7869 40.1114 43.0601 41.3066 42.0842 42.281C41.1098 43.2569 39.9146 43.9837 38.5998 44.3998C37.285 44.8159 35.8893 44.909 34.5308 44.6712C33.7384 45.7998 32.6857 46.7208 31.4618 47.3563C30.238 47.9917 28.879 48.3229 27.5 48.3218C24.5942 48.3218 22.0229 46.8781 20.4692 44.6712C19.1107 44.9088 17.7151 44.8156 16.4003 44.3995C15.0855 43.9835 13.8903 43.2568 12.9158 42.281C11.9399 41.3066 11.2131 40.1114 10.797 38.7966C10.3809 37.4818 10.2879 36.0861 10.5256 34.7276C9.39703 33.9352 8.47601 32.8825 7.84054 31.6586C7.20507 30.4348 6.87388 29.0758 6.875 27.6968C6.875 24.791 8.31875 22.2197 10.5256 20.666C10.2879 19.3075 10.3809 17.9118 10.797 16.597C11.2131 15.2822 11.9399 14.087 12.9158 13.1126C13.8903 12.1368 15.0855 11.4102 16.4003 10.9941C17.7151 10.578 19.1107 10.4849 20.4692 10.7224C21.2617 9.59398 22.3145 8.67306 23.5383 8.03761C24.7621 7.40216 26.121 7.07088 27.5 7.07181C30.4058 7.07181 32.9771 8.51556 34.5308 10.7224C35.8893 10.4849 37.2849 10.578 38.5997 10.9941C39.9145 11.4102 41.1097 12.1368 42.0842 13.1126C43.06 14.0871 43.7867 15.2823 44.2027 16.5971C44.6188 17.9119 44.712 19.3076 44.4744 20.666C45.603 21.4584 46.524 22.5111 47.1595 23.735C47.7949 24.9588 48.1261 26.3178 48.125 27.6968Z" stroke="#00B3FF" stroke-width="3" stroke-linecap="round" stroke-linejoin="round"/>
</svg>
